:SAMPLES-PER-SECOND 30
:FRAME-RANGE 1-2009
:FULLY-SPECIFIED
:DEGREES
1131
root  11.754 38.4214 -92.5308 18.7911 69.2975 19.5285
RightUpLeg  -13.3906 -1.18 -7.80944
RightLeg  72.2868 1.82469 5.53434
RightFoot  1.93102 -0.890907 7.75944
RightToes  2.96424e-010 1.2921e-014 -6.02303e-014
Spine  -4.61929 2.72374 0.922713
Spine1  9.47455 5.28876 -12.6776
HEad  18.3606 -12.5693 -1.15608
LeftShoulder1  0.199834 2.58379 -21.598
LeftArm  -1.52501 5.97619 -28.3833
LeftForeArm  25.7611 7.91878 -12.7115
LeftHand  -0.033377 4.44863 1.27522
RightShoulder  1.6819 5.38049 12.3895
RightArm  -45.9235 34.7345 35.4187
RightForeArm  5.32086 -1.1581 -9.02934
RightHand  0.0603888 -5.92231 -16.4064
LeftUpLeg  -19.1742 -8.04519 -10.0071
LeftLeg  24.3141 5.47723 3.08667
LeftFoot  -5.367 -0.0935829 2.41308
LeftToes  -1.2485e-010 1.20979e-011 -1.0929e-011
1132
root  13.4446 38.7238 -92.0692 15.3058 69.8511 16.2525
RightUpLeg  -17.7763 -2.4108 -6.48909
RightLeg  71.8503 0.463219 0.69559
RightFoot  0.696906 -0.469866 4.49809
RightToes  2.96424e-010 1.2921e-014 -6.02303e-014
Spine  -4.48209 1.84205 1.53157
Spine1  8.40494 3.98567 -11.5489
HEad  20.1497 -11.2214 -3.23239
LeftShoulder1  0.419724 1.77313 -21.2504
LeftArm  -2.50529 3.13125 -30.4293
LeftForeArm  28.2716 7.84173 -12.3886
LeftHand  -0.0520093 4.06863 2.84352
RightShoulder  1.67066 5.24319 12.586
RightArm  -45.1825 35.1457 35.5343
RightForeArm  7.03654 -0.330366 -8.2783
RightHand  -0.00370097 -5.47183 -15.6284
LeftUpLeg  -15.3542 -7.63139 -9.44557
LeftLeg  23.8415 5.17519 2.94657
LeftFoot  -7.94388 -0.0406025 2.98099
LeftToes  -1.2485e-010 1.20979e-011 -1.0929e-011
1133
root  15.0161 39.002 -91.5572 13.597 70.6986 14.7409
RightUpLeg  -21.3103 -3.13931 -5.65127
RightLeg  68.1212 -0.0745336 -0.917099
RightFoot  -1.04652 -0.150083 1.58617
RightToes  2.96424e-010 1.2921e-014 -6.02303e-014
Spine  -3.85972 0.928433 0.162691
Spine1  7.29847 2.43711 -9.67506
HEad  19.9837 -10.8896 -3.64512
LeftShoulder1  0.718688 0.621275 -20.591
LeftArm  -3.1277 1.06227 -32.418
LeftForeArm  28.3506 5.28024 -12.0742
LeftHand  -0.0450058 4.42221 2.82517
RightShoulder  1.56179 4.68817 12.5683
RightArm  -44.4592 35.2622 35.6031
RightForeArm  11.7559 0.162681 -7.48994
RightHand  -0.0338766 -5.24134 -14.7797
LeftUpLeg  -11.024 -4.13808 -9.36403
LeftLeg  21.5257 1.64146 1.89444
LeftFoot  -9.48884 0.00415549 3.27322
LeftToes  -1.2485e-010 1.20979e-011 -1.0929e-011
1134
root  16.5941 39.1339 -91.0335 12.519 71.884 13.4375
RightUpLeg  -24.5101 -3.84473 -5.0103
RightLeg  62.2526 -0.326853 -1.2068
RightFoot  -3.57407 -0.0978514 1.08288
RightToes  2.96424e-010 1.2921e-014 -6.02303e-014
Spine  -3.99079 -0.116165 -0.872505
Spine1  6.66417 1.03624 -7.89878
HEad  19.4669 -11.2899 -3.29732
LeftShoulder1  1.05321 -0.694108 -20.1245
LeftArm  -2.56174 -1.82815 -33.6239
LeftForeArm  29.0406 2.3527 -12.3018
LeftHand  -0.0520625 4.31831 3.43282
RightShoulder  1.47877 4.10771 13.0086
RightArm  -42.3046 34.8737 35.1908
RightForeArm  15.8406 0.600506 -5.78943
RightHand  -0.17275 -4.1314 -14.8422
LeftUpLeg  -7.72629 -1.96522 -8.66095
LeftLeg  20.3298 -1.28933 0.808275
LeftFoot  -11.3336 0.0679087 3.58928
LeftToes  -1.2485e-010 1.20979e-011 -1.0929e-011
1135
root  18.1352 39.1654 -90.4978 11.9346 72.9854 12.584
RightUpLeg  -26.7982 -4.24458 -4.31262
RightLeg  53.9574 -1.51392 -2.62237
RightFoot  -5.776 -0.0975531 1.19942
RightToes  2.96424e-010 1.2921e-014 -6.02303e-014
Spine  -3.84309 -1.17691 -1.90961
Spine1  5.88224 -0.221117 -6.49926
HEad  18.7456 -12.0379 -2.46761
LeftShoulder1  1.26165 -1.59371 -19.506
LeftArm  -2.48461 -5.22953 -34.7811
LeftForeArm  29.9228 -0.301489 -12.2954
LeftHand  -0.0594426 4.22841 4.00058
RightShoulder  1.42204 3.60946 13.6777
RightArm  -40.012 33.9313 35.1405
RightForeArm  18.2466 1.53766 -4.02463
RightHand  -0.222288 -3.74586 -14.9422
LeftUpLeg  -4.76819 -0.314265 -7.86084
LeftLeg  19.5424 -3.76153 -0.116636
LeftFoot  -13.2641 0.149707 4.16778
LeftToes  -1.2485e-010 1.20979e-011 -1.0929e-011
1136
root  19.6588 39.2116 -89.9747 11.0584 73.6248 11.1693
RightUpLeg  -27.9634 -3.81099 -3.44911
RightLeg  42.8187 -4.41379 -4.6514
RightFoot  -5.43946 -0.094067 1.10754
RightToes  2.96424e-010 1.2921e-014 -6.02303e-014
Spine  -4.2453 -1.93614 -2.29385
Spine1  5.74598 -1.02546 -5.18506
HEad  17.8886 -13.0886 -1.54119
LeftShoulder1  1.40629 -2.31033 -18.7441
LeftArm  -2.26565 -9.06577 -36.0563
LeftForeArm  29.8366 -2.39238 -12.1949
LeftHand  -0.0641731 4.27225 4.69119
RightShoulder  1.39807 3.26406 14.4582
RightArm  -38.0216 32.6671 35.2445
RightForeArm  20.2993 1.89998 -2.68413
RightHand  -0.236929 -3.65249 -15.1409
LeftUpLeg  -1.68557 0.407911 -7.05358
LeftLeg  17.8492 -4.99465 -0.311568
LeftFoot  -14.5013 0.208428 4.39415
LeftToes  -1.2485e-010 1.20979e-011 -1.0929e-011
1137
root  21.1644 39.191 -89.4463 10.5172 74.0301 9.93888
RightUpLeg  -27.6165 -2.66147 -2.754
RightLeg  28.8563 -8.362 -5.1798
RightFoot  -4.22116 -0.0573006 0.459743
RightToes  2.96424e-010 1.2921e-014 -6.02303e-014
Spine  -4.62977 -2.4878 -2.41862
Spine1  5.51941 -1.59107 -4.13702
HEad  17.5484 -14.2984 -0.743201
LeftShoulder1  1.50709 -2.8992 -17.9338
LeftArm  -2.12371 -12.772 -37.3724
LeftForeArm  29.4454 -3.95058 -11.9818
LeftHand  -0.0717894 4.09737 4.8267
RightShoulder  1.39333 2.97589 15.441
RightArm  -35.5659 30.6366 35.4838
RightForeArm  22.2548 1.88833 -1.21475
RightHand  -0.231381 -3.75135 -15.6586
LeftUpLeg  1.07404 0.878909 -6.23253
LeftLeg  16.3685 -6.07624 -0.518701
LeftFoot  -15.7095 0.24873 4.04502
LeftToes  -1.2485e-010 1.20979e-011 -1.0929e-011
